<svg width="19" height="21" viewBox="0 0 19 21" fill="none" xmlns="http://www.w3.org/2000/svg">
<path d="M15.8599 10.8018C15.849 9.1264 16.6876 7.86369 18.3811 6.93263C17.4339 5.70431 16.001 5.02873 14.1122 4.89853C12.3237 4.77079 10.367 5.84188 9.65055 5.84188C8.89337 5.84188 7.16192 4.94275 5.79956 4.94275C2.98798 4.98206 0 6.97193 0 11.0205C0 12.2168 0.241535 13.4525 0.724605 14.7251C1.37051 16.4005 3.69901 20.5055 6.12793 20.4392C7.39803 20.4122 8.29632 19.6236 9.94907 19.6236C11.553 19.6236 12.3834 20.4392 13.8001 20.4392C16.2507 20.4073 18.3567 16.6756 18.97 14.9953C15.6835 13.5926 15.8599 10.8878 15.8599 10.8018ZM15.5722 17.361C15.1841 17.8499 14.7933 18.2356 14.4351 18.4837C14.1502 18.6803 13.9303 18.7638 13.7838 18.7687C13.5395 18.7662 13.3034 18.7122 12.8421 18.5525C12.8095 18.5402 12.7742 18.5279 12.7281 18.5132L12.6087 18.4714C12.1365 18.3068 11.8542 18.2184 11.4933 18.1324C10.9885 18.0145 10.4864 17.9506 9.94907 17.9506C9.40087 17.9506 8.88523 18.0121 8.37231 18.1275C7.99508 18.2135 7.67756 18.3093 7.21348 18.4665C7.19449 18.4739 6.99366 18.5427 6.93667 18.5623C6.84168 18.5943 6.76841 18.6188 6.70056 18.6409C6.41832 18.7294 6.2392 18.7662 6.07908 18.7687C6.06009 18.7687 6.0438 18.7662 6.03023 18.7638C6.00038 18.7589 5.96239 18.749 5.91897 18.7318C5.79684 18.6876 5.65029 18.6066 5.48475 18.4911C5.1048 18.2233 4.68686 17.8032 4.26079 17.2652C3.51447 16.317 2.80886 15.0592 2.46963 14.1772C2.05169 13.0767 1.84544 12.0228 1.84544 11.018C1.84544 9.53911 2.32851 8.41398 3.15895 7.64996C3.8727 6.9965 4.83341 6.63046 5.81312 6.61081C5.97324 6.61326 6.20664 6.64766 6.50245 6.72135C6.73584 6.77786 6.99095 6.85401 7.33561 6.96456C7.43874 6.99895 7.79425 7.11442 7.83768 7.12916C8.04664 7.19794 8.20405 7.24707 8.35874 7.29129C8.85267 7.43378 9.23532 7.51239 9.65055 7.51239C10.0712 7.51239 10.4321 7.43132 10.9451 7.27164C11.1377 7.21268 11.8379 6.97684 11.9628 6.93754C12.6575 6.71398 13.1704 6.59361 13.6128 6.56413C13.7431 6.5543 13.8598 6.5543 13.971 6.56167C14.5871 6.60589 15.1136 6.71644 15.5614 6.90069C14.541 7.96687 14.0145 9.27134 14.0172 10.792C14.009 11.1531 14.0416 11.5708 14.1556 12.0645C14.3293 12.8138 14.6604 13.5557 15.1841 14.2509C15.5831 14.7791 16.077 15.2557 16.6686 15.6709C16.3565 16.2531 15.9739 16.855 15.5722 17.361ZM13.0076 3.30909C14.3835 1.83019 14.2587 0.483957 14.218 0C13.0022 0.0638725 11.5964 0.749274 10.7958 1.5919C9.91379 2.49594 9.39544 3.61371 9.50671 4.87396C10.8202 4.96486 12.0198 4.35316 13.0076 3.30909Z" fill="white"/>
</svg>
