<svg width="96" height="25" viewBox="0 0 96 25" fill="none" xmlns="http://www.w3.org/2000/svg">
<path d="M4.43459e-05 24.3977V1.12498H8.72732C10.5152 1.12498 12.0152 1.45831 13.2273 2.12498C14.447 2.79164 15.3675 3.70831 15.9887 4.87498C16.6175 6.03407 16.9319 7.35225 16.9319 8.82952C16.9319 10.3219 16.6175 11.6477 15.9887 12.8068C15.3599 13.9659 14.4319 14.8788 13.2046 15.5454C11.9773 16.2045 10.466 16.5341 8.6705 16.5341H2.88641V13.0682H8.10232C9.14777 13.0682 10.0038 12.8863 10.6705 12.5227C11.3372 12.1591 11.8296 11.6591 12.1478 11.0227C12.4735 10.3863 12.6364 9.65528 12.6364 8.82952C12.6364 8.00377 12.4735 7.27649 12.1478 6.64771C11.8296 6.01892 11.3334 5.53028 10.6591 5.1818C9.99247 4.82574 9.13262 4.64771 8.07959 4.64771H4.21595V24.3977H4.43459e-05ZM20.412 24.3977V6.94316H24.4006V9.85225H24.5824C24.9006 8.84467 25.4461 8.06816 26.2188 7.52271C26.9991 6.96967 27.8892 6.69316 28.8892 6.69316C29.1165 6.69316 29.3703 6.70452 29.6506 6.72725C29.9385 6.7424 30.1771 6.76892 30.3665 6.8068V10.5909C30.1923 10.5303 29.9158 10.4772 29.537 10.4318C29.1658 10.3788 28.8059 10.3523 28.4574 10.3523C27.7074 10.3523 27.0332 10.5151 26.4347 10.8409C25.8438 11.1591 25.3779 11.6023 25.037 12.1704C24.6961 12.7386 24.5256 13.3939 24.5256 14.1363V24.3977H20.412ZM40.108 24.7386C38.358 24.7386 36.8466 24.375 35.5739 23.6477C34.3088 22.9129 33.3353 21.875 32.6535 20.5341C31.9716 19.1856 31.6307 17.5985 31.6307 15.7727C31.6307 13.9773 31.9716 12.4015 32.6535 11.0454C33.3428 9.6818 34.305 8.62119 35.5398 7.86361C36.7747 7.09846 38.2254 6.71589 39.8921 6.71589C40.9678 6.71589 41.983 6.89013 42.9375 7.23861C43.8997 7.57952 44.7482 8.10983 45.483 8.82952C46.2254 9.54922 46.8088 10.4659 47.233 11.5795C47.6572 12.6856 47.8694 14.0038 47.8694 15.5341V16.7954H33.5625V14.0227H43.9262C43.9186 13.2348 43.7482 12.5341 43.4148 11.9204C43.0815 11.2992 42.6156 10.8106 42.0171 10.4545C41.4262 10.0985 40.7368 9.92043 39.9489 9.92043C39.108 9.92043 38.3694 10.125 37.733 10.5341C37.0966 10.9356 36.6004 11.4659 36.2444 12.125C35.8959 12.7765 35.7178 13.4924 35.7103 14.2727V16.6932C35.7103 17.7083 35.8959 18.5795 36.2671 19.3068C36.6383 20.0265 37.1572 20.5795 37.8239 20.9659C38.4906 21.3447 39.2709 21.5341 40.1648 21.5341C40.7633 21.5341 41.305 21.4507 41.7898 21.2841C42.2747 21.1098 42.6951 20.856 43.0512 20.5227C43.4072 20.1894 43.6762 19.7765 43.858 19.2841L47.6989 19.7159C47.4565 20.731 46.9944 21.6174 46.3125 22.375C45.6383 23.125 44.7747 23.7083 43.7216 24.125C42.6686 24.5341 41.4641 24.7386 40.108 24.7386ZM57.8267 24.7045C56.4555 24.7045 55.2283 24.3523 54.1449 23.6477C53.0616 22.9432 52.2055 21.9204 51.5767 20.5795C50.948 19.2386 50.6336 17.6098 50.6336 15.6932C50.6336 13.7538 50.9517 12.1174 51.5881 10.7841C52.2321 9.44316 53.0995 8.4318 54.1904 7.74998C55.2813 7.06058 56.4972 6.71589 57.8381 6.71589C58.8608 6.71589 59.7017 6.89013 60.3608 7.23861C61.0199 7.57952 61.5427 7.9924 61.929 8.47725C62.3154 8.95452 62.6146 9.40528 62.8267 9.82952H62.9972V1.12498H67.1222V24.3977H63.0767V21.6477H62.8267C62.6146 22.0719 62.3078 22.5227 61.9063 23C61.5048 23.4697 60.9745 23.8712 60.3154 24.2045C59.6563 24.5379 58.8267 24.7045 57.8267 24.7045ZM58.9745 21.3295C59.8457 21.3295 60.5881 21.0947 61.2017 20.625C61.8154 20.1477 62.2813 19.4848 62.5995 18.6363C62.9177 17.7879 63.0767 16.7992 63.0767 15.6704C63.0767 14.5416 62.9177 13.5606 62.5995 12.7273C62.2889 11.8939 61.8267 11.2462 61.2131 10.7841C60.6071 10.3219 59.8608 10.0909 58.9745 10.0909C58.0578 10.0909 57.2927 10.3295 56.679 10.8068C56.0654 11.2841 55.6033 11.9432 55.2927 12.7841C54.9821 13.625 54.8267 14.5871 54.8267 15.6704C54.8267 16.7613 54.9821 17.7348 55.2927 18.5909C55.6108 19.4394 56.0767 20.1098 56.6904 20.6023C57.3116 21.0871 58.073 21.3295 58.9745 21.3295ZM71.5057 24.3977V6.94316H75.6194V24.3977H71.5057ZM73.5739 4.46589C72.9224 4.46589 72.3618 4.24998 71.8921 3.81816C71.4224 3.37876 71.1875 2.85225 71.1875 2.23861C71.1875 1.6174 71.4224 1.09089 71.8921 0.659067C72.3618 0.219674 72.9224 -2.28882e-05 73.5739 -2.28882e-05C74.233 -2.28882e-05 74.7936 0.219674 75.2557 0.659067C75.7254 1.09089 75.9603 1.6174 75.9603 2.23861C75.9603 2.85225 75.7254 3.37876 75.2557 3.81816C74.7936 4.24998 74.233 4.46589 73.5739 4.46589ZM83.5995 18.9204L83.5881 13.9545H84.2472L90.5199 6.94316H95.3267L87.6108 15.5341H86.7586L83.5995 18.9204ZM79.8495 24.3977V1.12498H83.9631V24.3977H79.8495ZM90.804 24.3977L85.1222 16.4545L87.8949 13.5568L95.7245 24.3977H90.804Z" fill="#FE1D1D"/>
</svg>
